<svg id="Group_44014" data-name="Group 44014" xmlns="http://www.w3.org/2000/svg" width="26.666" height="26.666" viewBox="0 0 26.666 26.666">
  <g id="Group_12904" data-name="Group 12904">
    <rect id="Rectangle_8173" data-name="Rectangle 8173" width="26.666" height="26.666" rx="6" fill="#f1eada"/>
  </g>
  <path id="Icon_awesome-instagram" data-name="Icon awesome-instagram" d="M8.915,6.582a4.572,4.572,0,1,0,4.572,4.572A4.565,4.565,0,0,0,8.915,6.582Zm0,7.545a2.972,2.972,0,1,1,2.972-2.972,2.978,2.978,0,0,1-2.972,2.972Zm5.826-7.732a1.066,1.066,0,1,1-1.066-1.066A1.064,1.064,0,0,1,14.741,6.395Zm3.028,1.082a5.277,5.277,0,0,0-1.44-3.736A5.312,5.312,0,0,0,12.592,2.3c-1.472-.084-5.885-.084-7.358,0A5.3,5.3,0,0,0,1.5,3.737,5.3,5.3,0,0,0,.057,7.473c-.084,1.472-.084,5.885,0,7.357A5.277,5.277,0,0,0,1.5,18.567a5.319,5.319,0,0,0,3.736,1.44c1.472.084,5.885.084,7.358,0a5.277,5.277,0,0,0,3.736-1.44,5.312,5.312,0,0,0,1.44-3.736c.084-1.472.084-5.881,0-7.354Zm-1.9,8.933a3.009,3.009,0,0,1-1.7,1.7c-1.174.466-3.959.358-5.256.358s-4.087.1-5.256-.358a3.009,3.009,0,0,1-1.7-1.7c-.466-1.174-.358-3.959-.358-5.256S1.5,7.067,1.963,5.9a3.009,3.009,0,0,1,1.7-1.7c1.174-.466,3.959-.358,5.256-.358s4.087-.1,5.256.358a3.009,3.009,0,0,1,1.7,1.7c.466,1.174.358,3.959.358,5.256S16.332,15.241,15.867,16.411Z" transform="translate(4.347 2.465)" fill="#5f5751"/>
</svg>
