<svg id="Group_44016" data-name="Group 44016" xmlns="http://www.w3.org/2000/svg" width="26.666" height="26.666" viewBox="0 0 26.666 26.666">
  <path id="Path_126741" data-name="Path 126741" d="M6.082,0h14.5a6.082,6.082,0,0,1,6.082,6.082v14.5a6.082,6.082,0,0,1-6.082,6.082H6.082A6.082,6.082,0,0,1,0,20.584V6.082A6.082,6.082,0,0,1,6.082,0Z" fill="#f1eada"/>
  <path id="Icon_awesome-whatsapp" data-name="Icon awesome-whatsapp" d="M13.453,4.549A7.843,7.843,0,0,0,1.113,14.011L0,18.073l4.157-1.091a7.817,7.817,0,0,0,3.747.954h0a7.916,7.916,0,0,0,7.915-7.841,7.872,7.872,0,0,0-2.37-5.545ZM7.908,16.615a6.506,6.506,0,0,1-3.32-.908l-.237-.141-2.465.646.657-2.405-.155-.247A6.53,6.53,0,1,1,14.5,10.094,6.59,6.59,0,0,1,7.908,16.615Zm3.574-4.881c-.194-.1-1.158-.572-1.339-.636s-.311-.1-.441.1-.505.636-.622.77-.23.148-.424.049A5.333,5.333,0,0,1,5.99,9.685c-.2-.346.2-.321.576-1.07a.363.363,0,0,0-.018-.343c-.049-.1-.441-1.063-.6-1.455s-.321-.328-.441-.336-.244-.007-.374-.007a.726.726,0,0,0-.523.244A2.2,2.2,0,0,0,3.92,8.353a3.838,3.838,0,0,0,.8,2.027,8.755,8.755,0,0,0,3.348,2.96,3.834,3.834,0,0,0,2.352.491A2.007,2.007,0,0,0,11.74,12.9a1.639,1.639,0,0,0,.113-.932C11.807,11.878,11.677,11.829,11.482,11.733Z" transform="translate(5.169 2.853)" fill="#5f5751"/>
</svg>
