<svg xmlns="http://www.w3.org/2000/svg" width="180.685" height="71.9" viewBox="0 0 180.685 71.9">
  <g id="Group_44274" data-name="Group 44274" transform="translate(-90 -39.367)">
    <g id="Group_171" data-name="Group 171" transform="translate(145.121 40.233)">
      <path id="Path_391" data-name="Path 391" d="M113.773,121.209a5.508,5.508,0,1,1-.013.025Zm1.9.063a5.6,5.6,0,1,0,0-.025Z" transform="translate(-113.76 -113.85)" fill="#002851"/>
      <path id="Path_392" data-name="Path 392" d="M129.963,114.258h1.824c0,.78,0,1.56-.025,2.5.805-1.824,2.7-2.931,5.208-2.881,4.352.063,5.874,3.032,5.874,6.44l-.013,7.963h-1.9l.013-7.573c0-3.019-1.346-5.082-4.491-5.032-2.893.025-4.554,1.761-4.566,4.679l-.013,7.912H129.95Z" transform="translate(-109.585 -113.843)" fill="#002851"/>
      <path id="Path_393" data-name="Path 393" d="M146.307,121.825a5.334,5.334,0,0,0,5.459,5.183,5.176,5.176,0,0,0,4.818-2.881h2a7.465,7.465,0,0,1-2.843,3.409,7.335,7.335,0,0,1-3.988,1.145,7.488,7.488,0,1,1,7.283-6.83ZM157.15,120.3a5.46,5.46,0,0,0-10.831-.013Z" transform="translate(-105.866 -113.837)" fill="#002851"/>
    </g>
    <g id="Group_172" data-name="Group 172" transform="translate(126.643 47.152)">
      <path id="Path_394" data-name="Path 394" d="M99.133,119.35l5.12.013-.063,46.152-5.12-.013Z" transform="translate(-99.07 -119.35)" fill="#002851"/>
      <path id="Path_395" data-name="Path 395" d="M110.47,129.569h4.365c0,1.874,0,3.736-.075,5.988,1.937-4.365,6.491-7.044,12.478-6.906,10.415.138,14.089,7.258,14.076,15.422l-.025,19.082-4.554-.013.025-18.152c.013-7.233-3.233-12.164-10.768-12.051-6.918.05-10.919,4.227-10.931,11.208l-.025,18.957-4.617-.013Z" transform="translate(-96.143 -116.953)" fill="#002851"/>
      <path id="Path_396" data-name="Path 396" d="M176.016,165.592h-4.428l.013-6.918c-2.377,4.428-6.868,7.849-13.862,7.837-10.73-.013-17.321-8.378-17.309-17.8.013-9.975,7.258-17.636,17.3-17.623,7.359.013,12.214,4.252,13.711,7.749l.013-7.107.013-12.29,4.616.013Zm-31.032-16.818c.05,6.73,4.717,13.422,13.447,13.422a13.361,13.361,0,0,0,9.547-3.912,13.18,13.18,0,0,0,3.761-9.661,12.91,12.91,0,0,0-3.849-9.422,13.458,13.458,0,0,0-22.906,9.51Z" transform="translate(-88.403 -119.327)" fill="#002851"/>
      <path id="Path_397" data-name="Path 397" d="M176.025,119.46l4.617.013-.013,6.428-4.617-.013ZM176,132.052l4.617.013-.05,33.548-4.616-.013Z" transform="translate(-79.243 -119.322)" fill="#002851"/>
      <path id="Path_398" data-name="Path 398" d="M220.862,163.277l-4.616-.013.013-6.918c-2.629,5.044-7.749,7.849-13.736,7.837-10.919-.013-17.384-8.5-17.372-17.736.013-9.849,7.2-17.7,17.422-17.686,7.17.013,12.088,4.189,13.711,8l.013-7.044,4.616.013ZM189.7,146.522c.05,6.051,4.227,13.346,13.447,13.372a12.57,12.57,0,0,0,12.114-8.151,12.761,12.761,0,0,0,1.132-5.3,11.811,11.811,0,0,0-1.057-5.359,12.951,12.951,0,0,0-12.277-8.063,13.155,13.155,0,0,0-13.371,13.447Z" transform="translate(-76.87 -116.923)" fill="#002851"/>
    </g>
    <g id="Group_173" data-name="Group 173" transform="translate(90 39.367)">
      <path id="Path_399" data-name="Path 399" d="M87.759,147.829c-.013-.038-.038-.063-.05-.1l-.013-.038c-.013-.038-.038-.063-.05-.1l-.025-.038c-.013-.038-.038-.063-.05-.1l-.013-.038c-.013-.025-.025-.038-.038-.063l-.025-.038-.013-.025-.013-.038c-.025-.038-.038-.063-.063-.1l-.025-.038-.025-.038-.013-.025-.025-.038-.025-.038c-.038-.063-.075-.126-.113-.2l-.025-.038c-.013-.025-.025-.038-.038-.063l-.025-.038c-.025-.038-.05-.088-.075-.126l-.025-.038c-.075-.113-.151-.239-.226-.352l-.025-.038c-.025-.038-.038-.063-.063-.1l-.025-.038-.013-.025c-.025-.038-.038-.063-.063-.1-.113-.164-.226-.327-.352-.5l-.025-.025-.025-.025c-.05-.063-.088-.126-.138-.189l-.025-.025-.025-.038-.025-.038c-.05-.063-.088-.113-.138-.176l-.025-.025c-.1-.126-.2-.252-.3-.39l-.025-.025-.025-.025-.025-.025-.025-.025c-.126-.151-.239-.289-.365-.428L85,143.829a2.187,2.187,0,0,1-.151-.176l-.025-.025c-.088-.1-.189-.2-.277-.3l-.025-.025a.547.547,0,0,1-.075-.088l-.025-.025-.025-.025-.025-.025-.025-.025a2.417,2.417,0,0,1-.176-.189l-.025-.025-.025-.025-.025-.025-.025-.025L84,142.747l-.025-.025a1.187,1.187,0,0,1-.126-.126l-.038-.038-.025-.025-.025-.025-.025.013-.113-.113-.025-.025c-.113-.1-.214-.2-.327-.3,0,0-.063-.063-.126-.113a.607.607,0,0,0-.126-.1c-.05-.05-.113-.088-.164-.138l-.075-.063a.925.925,0,0,0-.075-.063l-.038-.025a.588.588,0,0,1-.075-.063l-.189-.151a1.442,1.442,0,0,0-.151-.113c-.075-.05-.151-.113-.226-.164l-.05-.038-.038-.025c-.05-.038-.088-.063-.138-.1,0,0-.113-.075-.176-.126l-.025-.025s-.088-.063-.164-.113l-.138-.088-.05-.025-.138-.088c-.063-.038-.138-.088-.138-.088l-.075-.05a.1.1,0,0,0-.038-.025c-.088-.05-.164-.1-.252-.151-.013-.013-.013-.013-.025-.013-.088-.05-.164-.1-.252-.151-.063.025-.113.063-.176.088l-.113.05c-.05.025-.113.05-.113.05l-.038.013-.038.013-.1.05-.025.013-.05.025c-.013.013-.013.013-.025.013a.836.836,0,0,0-.088.038l-.025.013-.025.013s-.088.038-.164.063l-.038.013-.025.013c-.013.013-.013.013-.025.013a.837.837,0,0,0-.088.038l-.038.013-.038.013c-.025.013-.038.013-.063.025a.076.076,0,0,1-.05.013.138.138,0,0,0-.05.025l-.025.013c-.013.013-.013.013-.038.013a.555.555,0,0,1-.1.038l-.038.013-.038.013-.3.113s-.038.013-.088.025c-.013,0-.013,0-.038.013a.528.528,0,0,0-.063.025l-.038.013-.063.025-.088.025-.1.038-.1.038-.05.013s-.1.025-.176.05l-.025.013a.791.791,0,0,1-.151.038l-.038.013-.038.013a.828.828,0,0,0-.126.038h-.038l-.025.013c-.013,0-.013,0-.038.013l-.05.013-.038.013-.05.013-.151.038H76.74c-.05.013-.088.025-.088.025l-.038.013-.025.013-.038.013-.05.013-.05.013a.22.22,0,0,1-.063.013l-.038.013c0,.013,0,.013.013.025.013.05.025.088.025.088l.013.038a1.069,1.069,0,0,0,.038.113v.025l.013.038a.168.168,0,0,1,.013.063l.013.05a.168.168,0,0,1,.013.063l.05.164.013.025a.22.22,0,0,1,.013.063c.013.05.025.126.025.126.013.063.038.151.038.151l.013.038.038.151.025.126c0,.025.013.038.013.063a.22.22,0,0,1,.013.063c.025.088.013.05.025.1,0,.025.013.063.013.088s0,.025.013.038l.013.038.025.113.013.038.013.038c.013.05.025.113.025.113l.013.075.013.088.013.075a.553.553,0,0,1,.013.113l.013.038v.063l.013.05v.1l.013.113v.1l.013.05v.1l.013.113.013.075.013.113a.274.274,0,0,0,.013.075l.013.088v.063a.943.943,0,0,1,.013.151v.566a1.153,1.153,0,0,0,.164.088l.151.075.05.025c.088.05.189.1.277.151l.05.025.226.113.025.013.05.025.038.013a.79.79,0,0,0,.113.05s.126.063.214.1l.025.013c.025.013.025.013.038.013.088.038.164.075.252.113.013.013.013.013.025.013.1.05.214.088.327.138,0,0,.1.038.176.075l.05.025a.613.613,0,0,0,.088.038c.063.025.138.05.138.05.038.013.1.038.1.038a1.252,1.252,0,0,0,.138.05c.013,0,.013,0,.038.013l.075.025.038.013c.05.013.1.038.151.05l.038.013s.063.025.1.038a.2.2,0,0,0,.05.013c.063.025.113.038.176.063l.038.013a.591.591,0,0,1,.063.025c.013,0,.013,0,.038.013l.025.013c.013,0,.013,0,.025.013s.075.025.126.038l.05.013.038.013c.05.013.126.038.126.038l.075.025c.063.013.113.038.176.05a1.379,1.379,0,0,0,.138.038c.038.013.088.025.126.038l.038.013c.038.013.075.013.113.025l.038.013c.025,0,.05.013.075.013l.038.013.038.013c.1.025.189.05.289.075l.038.013c.025,0,.05.013.075.013l.038.013.189.038.038.013c.038.013.075.013.113.025l.038.013c.088.013.176.038.264.05l.038.013.189.038h.038c.038.013.075.013.113.025h.038l.075.013c.025,0,.05.013.075.013h.113c.038,0,.075.013.113.013h.038l.113.013.075.013c.038,0,.075.013.113.013h.038a1.751,1.751,0,0,0,.189.025h.075c.038,0,.075.013.113.013h.113c.038,0,.075.013.113.013H84.7a.16.16,0,0,1,.075.013h.038a.16.16,0,0,1,.075.013h.038a.16.16,0,0,1,.075.013h.113a.16.16,0,0,1,.075.013h2.075c.126,0,.252,0,.39-.013h.214l-.113-.226Z" transform="translate(-68.287 -106.244)" fill="#0092d7"/>
      <path id="Path_400" data-name="Path 400" d="M87.821,121.537a27.258,27.258,0,0,0,11.057-5.648.783.783,0,0,0-.239-1.321,21.973,21.973,0,0,0-26.089,8.466h.1c.025,0,.038.013.063.013a.233.233,0,0,1,.088.025h.025a.012.012,0,0,1,.013.013.329.329,0,0,1,.1.038c.025.013.05.038.075.05a1.6,1.6,0,0,1,.239.164.7.7,0,0,0,.1.063,2.761,2.761,0,0,1,.176.226l.025.038.075.1c.05.063.1.138.151.2l.025.038.025.038.025.038c.088.126.176.252.264.39l.025.038c.088.126.164.252.252.39l.025.038a1.326,1.326,0,0,0,.088.138.263.263,0,0,0,.05.075l.025.038c.038.063.075.126.113.176l.025.038.038.075.025.038c.025.038.038.075.063.113l.025.038.05.075c.038.075.088.138.126.214l.025.038.063.113.063.113.025.038.025.038a.937.937,0,0,0,.088.151l.025.038.113.226.025.038.025.038.025.038.075.151.025.038.025.038.013.038.025.038.075.151.025.038.075.151.025.038.013.038.013.038.038.075.013.038.038.075.038.075.013.038.013.038.013.038.151.34.013.038a.769.769,0,0,1,.063.151l.013.038.013.038.013.038a.769.769,0,0,1,.063.151l.013.038c.063.151.126.314.189.465l.013.038a3.273,3.273,0,0,0,.126.314l.013.038c.063.189.138.365.2.553l.013.038c.025.075.05.164.075.239l.013.038c.013.025.013.05.025.075l.013.038c.038.1.063.214.1.314a.8.8,0,0,1,.025.088l.013.038.013.038.013.038.025.088.038.126.038.126.013.038.013.038c.038.138.075.264.113.4l.05.189.013.038.038.164.013.038.013.038c0,.025.013.038.013.063l.013.038a.159.159,0,0,1,.013.075l.025.126.013.038.013.05c.013.063.025.138.025.138a.159.159,0,0,1,.013.075,1.413,1.413,0,0,1,.038.189s.013.088.025.164a.076.076,0,0,0,.013.05v.025l.025.164c0,.025,0,.025.013.038.013.075.025.164.025.164,0,.038.013.063.013.1l.013.05v.1c0,.025.013.05.013.088a.274.274,0,0,0,.013.075l.013.05v.038a.447.447,0,0,0,.013.088l.013.075.013.126v.126a.731.731,0,0,1,.013.126v.038l.013.151v.075l.013.088v.038a.214.214,0,0,0,.013.088.447.447,0,0,0,.013.088v.075a1.309,1.309,0,0,0,.013.138c.038-.025.088-.038.126-.063l.151-.075.1-.05c.075-.038.176-.075.176-.075l.038-.013.126-.05a.372.372,0,0,0,.075-.038l.189-.075.138-.063.025-.013.05-.025c.013,0,.013,0,.025-.013s.025-.013.038-.013l.05-.025.05-.013.038-.013.1-.038.1-.038.025-.013c.013,0,.013,0,.038-.013l.05-.013.025-.013.1-.038c.063-.025.113-.038.176-.063l.164-.063.075-.025c.063-.025.138-.05.138-.05a1.237,1.237,0,0,1,.2-.063s.113-.038.214-.063l.025-.013c.063-.025.126-.038.189-.063l.05-.013.038-.013c.025-.013.05-.013.075-.025.05-.013.126-.038.126-.038l.025-.013c.013,0,.013,0,.038-.013a.529.529,0,0,0,.063-.025l.038-.013.038-.013.075-.025.05-.013.075-.025.05-.013a.367.367,0,0,1,.113-.025l.038-.013.038-.013.038-.013c.025-.013.05-.013.075-.025l.038-.013c.025-.013.05-.013.075-.025l.038-.013a2.381,2.381,0,0,1,.289-.063l.038-.013a1.178,1.178,0,0,0,.2-.05l.038-.013.088-.013.126-.025c.025,0,.05-.013.075-.013l.038-.013.088-.013.038-.013.038-.013.038-.013.038-.013.038-.013.038-.013c.1-.013.189-.038.289-.05l.038-.013.164-.025.038-.013.038-.013a2.323,2.323,0,0,0,.289-.05h.038c.038,0,.075-.013.126-.013h.113c.075-.013.138-.013.2-.025h.038l.126-.013.088-.013c.038,0,.075-.013.126-.013h.113l.126-.013c.075-.013.138-.013.214-.025h.038l.088-.013c.1-.013.189-.013.289-.025h.214c.075,0,.138-.013.214-.013h.038l.126-.013a.718.718,0,0,0,.164-.013h.038c.151,0,.3-.013.465-.013h1.736c.126.013.252.013.377.025h.113c.126.013.252.013.377.025h.113c.038,0,.088.013.126.013h.038l.088.013c.075.013.138.013.214.025h.038c.075.013.138.013.214.025l.05.013a.113.113,0,0,1,.063.013h.038a.814.814,0,0,1,.164.05c.013,0,.013.013.025.013a1.162,1.162,0,0,1,.352.239l.063.063a1.233,1.233,0,0,1,.226.34v.025a.012.012,0,0,0,.013.013,1.647,1.647,0,0,1,.075.34.516.516,0,0,1-.013.138,1.387,1.387,0,0,1-.025.226.16.16,0,0,1-.013.075,1.41,1.41,0,0,1-.063.164l-.013.038-.013.038-.013.038-.013.038c-.013.038-.038.075-.05.113l-.013.038c-.025.063-.063.126-.088.189l-.013.038-.038.075-.013.038c-.013.038-.038.075-.05.113l-.013.038c-.013.038-.038.075-.05.113l-.013.038c-.013.038-.038.075-.05.113l-.013.038-.189.377-.025.038-.113.226-.025.038-.075.151-.025.038-.038.075-.025.038-.025.038-.025.038c-.038.063-.063.126-.1.189l-.025.038a.937.937,0,0,1-.088.151l-.025.038c-.075.126-.138.239-.214.365l-.025.038a.51.51,0,0,0-.063.113l-.025.038c-.063.113-.138.214-.2.327l-.025.038c-.025.05-.063.088-.088.138l-.025.038a.263.263,0,0,1-.05.075l-.025.038c-.05.075-.088.138-.138.214l-.025.038a.7.7,0,0,1-.075.1l-.025.038c-.075.1-.138.214-.214.314l-.025.038-.025.038-.05.063c-.025.038-.05.063-.075.1l-.025.038c-.025.038-.05.063-.075.1l-.025.038c-.013.025-.038.038-.05.063l-.025.038c-.025.038-.05.063-.075.1l-.025.038c-.05.063-.1.138-.151.2l-.025.038-.025.025-.025.038-.189.226-.025.038a.559.559,0,0,0-.1.138l-.025.038c-.025.038-.05.063-.075.1l-.025.038c-.05.063-.113.126-.164.189l-.025.038a.63.63,0,0,1-.088.1l-.025.025c-.038.038-.075.088-.113.126l-.025.025a.294.294,0,0,1-.088.088l-.025.025c-.05.05-.088.1-.138.151l-.025.038-.025.025-.025.038-.025.025-.025.025c-.038.038-.075.088-.113.126l-.025.038-.025.025-.025.025c-.013.025-.038.038-.05.063l-.025.038-.088.088-.025.025-.063.063-.025.025-.063.063-.025.025-.138.138-.025.025-.025.025-.075.075-.075.075-.025.025a.217.217,0,0,1-.05.038l-.176.164-.025.025-.075.075c-.05.038-.088.088-.138.126,0,0-.113.1-.189.164l-.189.164s-.075.063-.126.113l-.126.1a.985.985,0,0,1-.126.1l-.189.151-.088.063c-.038.025-.075.063-.113.088a.275.275,0,0,0-.063.05s-.075.05-.151.113c0,0-.088.063-.151.113l-.063.05-.038.025s-.088.063-.189.138l-.038.025-.113.088c-.038.025-.088.063-.088.063-.063.05-.151.113-.151.113l-.038.025-.05.038a.18.18,0,0,0-.038.025l.063.038c.063.05.138.088.2.138l.013.013a.1.1,0,0,1,.038.025s.088.063.151.113l.038.025a.491.491,0,0,0,.063.05l.088.063.013.013.038.025.025.025c.038.025.075.063.113.088a.1.1,0,0,0,.038.025s.075.063.151.113l.038.025a.491.491,0,0,0,.063.05l.05.038a.455.455,0,0,1,.063.05c.038.025.088.063.088.063l.025.025.126.1.025.025c.025.013.038.038.063.05a.1.1,0,0,0,.038.025l.013.013.05.038c.063.05.138.126.138.126.038.025.075.063.113.088l.038.038c.05.038.088.088.138.126l.025.025c.075.075.164.138.239.214,0,0,.088.075.138.126l.038.038s.075.063.126.113l.038.038.013.013.025.025.063.05.038.038.088.088.025.025.025.025.025.025.013.013.063.063.025.025.025.025.025.025.113.113.025.025.063.063.025.025c.013.025.038.038.05.063l.025.038c.063.075.138.138.2.214l.025.025c.038.038.075.088.113.126l.025.025.063.063.025.025.088.088c.025.025.05.063.088.1l.025.025a.63.63,0,0,0,.088.1l.025.038c.013.025.038.038.05.063l.025.038.05.063.075.1c.025.038.05.063.075.1l.025.038.025.038.025.038c.025.038.05.063.075.1l.05.063c.075.1.151.2.239.3l.025.038c.063.088.138.176.2.264l.025.038.05.063c.038.05.063.088.1.138l.025.038c.025.038.05.063.075.1l.025.038c.063.075.113.164.176.239l.025.038a.7.7,0,0,0,.075.1l.025.038c.025.05.063.088.088.138l.025.038c.075.113.151.239.226.352l.025.038a1.326,1.326,0,0,0,.088.138l.025.038c.038.063.075.126.113.176l.025.038c.038.075.088.138.126.214l.025.038a.263.263,0,0,0,.05.075l.025.038.025.038.025.038.025.038.025.038c.038.063.075.126.1.176l.025.038.025.038.025.038c.038.075.088.151.126.226l.025.038.038.075c.1.189.2.365.3.553l.025.038c.025.038.038.075.063.113l.025.038.038.075.025.038.025.038.013.038.063.113.113.226.025.038.038.075.013.038c.013.038.038.075.05.113l.013.038.05.113c.05.113.1.226.151.352l.013.038c.013.038.038.075.05.113l.063.164c.013.05.025.113.038.164v.063a1.273,1.273,0,0,1-.025.377.182.182,0,0,0-.025.088.986.986,0,0,1-.113.264.96.96,0,0,1-.1.138.933.933,0,0,1-.151.164c-.025.025-.038.05-.063.063s-.075.038-.113.063l-.013.013a22.452,22.452,0,0,0,4.44-.553l.025-16.919a53.935,53.935,0,0,0-.314-8.126,3.027,3.027,0,0,0-1.774-2.063c-.969-.465-3.132-.7-6.478-.7a1.433,1.433,0,0,1-1.434-1.434v-3.321A2.9,2.9,0,0,1,87.821,121.537Z" transform="translate(-69.267 -113.161)" fill="#002851"/>
      <path id="Path_401" data-name="Path 401" d="M71.451,136.078c-.038-.038-.075-.088-.113-.126l-.025-.025-.05-.05-.038-.038-.05-.05-.088-.088c-.126-.126-.252-.264-.39-.39,0,0-.126-.113-.189-.176a.969.969,0,0,0-.088-.075c-.088-.088-.176-.164-.264-.239l-.025-.025v.025l.013.038.013.038c.013.075.038.164.05.239,0,.013,0,.013.013.038l.013.05a21.88,21.88,0,0,0,3.66,7.56,1.186,1.186,0,0,1,.164.176l.025.038c.038.038.088.1.088.1l.025.038a1.326,1.326,0,0,0,.1.113c.126.138.239.277.365.415l.025.025s.075.088.126.138.088.1.088.1l.138.138.025.025s.063.075.113.126l.088.088.126.126.025.025.075.075.088.088.088.075.05.038.025.025.1.088.063.05a.631.631,0,0,1,.1.088l-.013-.1a1.316,1.316,0,0,0-.05-.214s-.025-.113-.05-.2a.274.274,0,0,1-.013-.075.391.391,0,0,0-.025-.088l-.038-.151a1.381,1.381,0,0,0-.038-.138s-.025-.075-.038-.126c0-.013,0-.013-.013-.038l-.025-.075-.025-.075-.013-.038-.025-.1-.013-.038c0-.013-.013-.038-.013-.05a.254.254,0,0,0-.025-.075c-.013-.05-.038-.113-.05-.164,0,0-.038-.113-.05-.164l-.075-.226-.013-.025-.013-.05c-.063-.176-.126-.365-.2-.541l-.013-.013c-.013-.05-.038-.113-.05-.164a.428.428,0,0,1-.013-.126c0-.025-.013-.038-.013-.063v-.05a1.194,1.194,0,0,1,.214-.742h0a.765.765,0,0,1,.088-.126.605.605,0,0,1,.138-.113.692.692,0,0,1,.113-.088,1.151,1.151,0,0,1,.214-.113c.038-.013.075-.05.113-.05a.535.535,0,0,1,.138-.025h.038s.088-.013.151-.025c.113-.025.226-.038.34-.063h.038l.05-.013c.113-.025.214-.038.327-.063l.038-.013.075-.013.05-.013.038-.013c.025,0,.025,0,.038-.013.063-.013.151-.038.151-.038l.038-.013.05-.013.075-.013.05-.013c.063-.013.151-.038.151-.038l.1-.025.05-.013.063-.013c.013,0,.013,0,.038-.013l.025-.013c.013,0,.013,0,.038-.013l.126-.038.038-.013c.088-.025.164-.05.252-.075l.113-.038.1-.038c.038-.013.088-.025.088-.025a.1.1,0,0,0-.038-.013l-.038-.013-.063-.013-.025-.013a.254.254,0,0,0-.075-.025l-.138-.05-.038-.013c-.1-.025-.189-.063-.289-.088l-.038-.013-.164-.05-.088-.025-.038-.013c-.1-.025-.214-.05-.314-.075,0,0-.189-.05-.277-.063-.189-.038-.39-.088-.579-.126l-.113-.025-.126-.025a.13.13,0,0,1-.05-.013s-.1-.013-.176-.025a1.135,1.135,0,0,1-.189-.038c-.05-.013-.088-.05-.138-.063-.013,0-.025-.013-.038-.013a1.347,1.347,0,0,1-.277-.189c-.025-.025-.05-.038-.063-.063a1.185,1.185,0,0,1-.226-.314l-.013-.013c-.025-.063-.038-.126-.063-.2a.4.4,0,0,1-.038-.113v-.013a1.028,1.028,0,0,1-.013-.34,1.378,1.378,0,0,1,.075-.327l.025-.05a.571.571,0,0,1,.038-.1l.013-.038c.025-.088.063-.164.088-.252l.013-.038.025-.063.013-.038c.038-.113.075-.226.113-.327l.013-.038.013-.05.013-.025c.025-.088.05-.176.075-.252l.013-.038.013-.038c.013-.05.025-.088.025-.088s.05-.164.088-.314l.013-.05c.013-.05.038-.126.038-.126s.038-.126.05-.2c.013-.038.025-.088.025-.088l.013-.038c.038-.164.075-.34.1-.5-.038.025-.063.063-.1.088l-.038.038c-.075.063-.151.138-.226.2,0,0-.063.063-.138.126l-.239.239-.214.214-.113.126s-.126.138-.2.214l-.038.038a.866.866,0,0,0-.138.164l-.138.151-.088.1c-.088.113-.176.214-.277.327l-.013.013a1.081,1.081,0,0,1-.252.226,1.267,1.267,0,0,1-.4.176c-.025,0-.038.025-.063.025a1.284,1.284,0,0,1-.616-.038.1.1,0,0,1-.05-.025,1.563,1.563,0,0,1-.252-.126c-.013-.013-.038-.013-.05-.025s-.038-.038-.05-.05-.063-.038-.075-.063c-.038-.038-.075-.088-.113-.126l-.025-.038a1.853,1.853,0,0,0-.126-.151.491.491,0,0,1-.05-.063c-.088-.113-.189-.214-.277-.327C71.627,136.279,71.514,136.141,71.451,136.078Z" transform="translate(-69.891 -107.588)" fill="#002851"/>
      <path id="Path_402" data-name="Path 402" d="M76.355,133.8a.977.977,0,0,0-.013-.164v-.138c0-.075-.013-.151-.013-.214v-.138c-.013-.138-.025-.289-.038-.415,0,0-.013-.138-.013-.176-.013-.1-.025-.214-.038-.314l-.013-.063a.831.831,0,0,1-.013-.138v-.05c-.013-.063-.025-.138-.025-.138a.97.97,0,0,1-.025-.189l-.025-.025s-.013-.088-.025-.138-.013-.088-.025-.126v-.05l-.025-.126c-.013-.05-.013-.1-.025-.138l-.013-.05-.013-.038L76,130.9a1.09,1.09,0,0,0-.038-.164c-.025-.113-.05-.214-.075-.327,0-.025,0-.025-.013-.038s-.038-.151-.05-.189l-.075-.3-.013-.025c0-.025,0-.025-.013-.038s-.038-.164-.075-.289l-.013-.038-.013-.038-.013-.038-.025-.113-.025-.113-.025-.075-.013-.038-.013-.038L75.5,129l-.013-.038c-.013-.025-.013-.05-.025-.063l-.013-.038-.013-.038c-.05-.164-.113-.34-.164-.5l-.013-.038c-.038-.113-.088-.239-.126-.352l-.013-.038a.864.864,0,0,0-.038-.1l-.013-.038-.013-.038-.013-.038a.986.986,0,0,1-.063-.176l-.013-.038c-.013-.025-.013-.05-.025-.063l-.013-.038c-.013-.025-.013-.05-.025-.063l-.013-.038a.87.87,0,0,0-.038-.1l-.013-.025a.446.446,0,0,0-.05-.113l-.013-.038a.179.179,0,0,1-.025-.075l-.013-.038c-.013-.038-.025-.063-.038-.1l-.013-.038c-.025-.05-.038-.088-.063-.138l-.013-.038-.025-.063a.748.748,0,0,0-.05-.1l-.013-.038a.747.747,0,0,0-.05-.1l-.013-.038-.013-.038-.013-.038a.276.276,0,0,0-.038-.063l-.013-.038-.025-.063-.013-.038-.013-.038c-.013-.025-.025-.038-.038-.063l-.013-.038a.675.675,0,0,1-.063-.138l-.013-.038a.675.675,0,0,1-.063-.138l-.013-.038-.013-.038-.013-.038-.013-.038-.013-.038-.075-.138L74,125.129l-.013-.038c-.013-.038-.038-.063-.05-.1l-.013-.038a.275.275,0,0,0-.038-.063l-.013-.038c-.013-.038-.038-.063-.05-.1l-.013-.038a.275.275,0,0,0-.038-.063l-.013-.038-.05-.1-.05-.1a.276.276,0,0,0-.038-.063l-.013-.038c-.025-.038-.038-.063-.063-.1l-.013-.025c-.025-.038-.038-.063-.063-.1l-.025-.038-.038-.063c-.063-.1-.126-.214-.189-.314-.075.126-.151.252-.239.377l-.025.038c-.025.038-.038.063-.063.1l-.025.038-.013.025-.025.038c-.038.05-.063.113-.1.164l-.025.038c-.025.038-.05.088-.075.126l-.025.038-.013.038c-.025.05-.063.113-.088.164l-.025.038c-.063.126-.138.252-.2.365l-.013.038a1.5,1.5,0,0,0-.1.2l-.013.038a.276.276,0,0,1-.038.063l-.013.038c-.013.038-.038.063-.05.1l-.013.038-.013.038c-.038.075-.075.164-.113.239l-.013.038c-.013.038-.038.063-.05.1l-.013.038a.747.747,0,0,1-.05.1l-.013.038-.013.025a.747.747,0,0,1-.05.1l-.013.038a.253.253,0,0,1-.05.1c-.025.063-.05.113-.075.176l-.013.038a.253.253,0,0,1-.05.1l-.013.038c-.013.025-.013.05-.025.063l-.013.038-.013.038-.013.038c-.038.1-.088.214-.126.314l-.013.038-.013.038a.985.985,0,0,0-.063.176l-.013.038c-.025.075-.05.138-.075.214l-.013.025a.866.866,0,0,1-.038.1l-.013.038-.013.038a.864.864,0,0,1-.038.1l-.013.038-.038.113-.013.038c-.013.025-.013.05-.025.075l-.013.038-.013.038-.013.038-.038.113-.013.038c-.013.025-.013.05-.025.075l-.013.038-.038.113-.013.038c-.013.063-.038.126-.05.176l-.013.038c-.025.1-.05.189-.075.289l-.013.038c-.013.063-.038.151-.038.151s0,.013-.013.038l-.025.113-.013.05a.78.78,0,0,1-.038.138l-.013.075c0,.013,0,.013-.013.038l-.013.038-.025.1-.025.113a.168.168,0,0,0-.013.063l-.013.05a1.317,1.317,0,0,1-.05.214l-.013.038-.013.038c0,.013-.013.038-.013.05l-.013.038-.013.038c-.013.1-.038.189-.05.289l-.013.05-.013.05c0,.025-.013.038-.013.075l-.013.038-.013.038a.256.256,0,0,1-.013.063c-.013.063-.025.164-.025.164a.256.256,0,0,1-.013.063l-.013.05c-.013.063-.013.113-.025.176v.038a.7.7,0,0,0-.013.113v.126c-.013.164-.038.314-.05.465v.038a.27.27,0,0,1-.013.075v.075a1.788,1.788,0,0,0-.013.189v.138c0,.075-.013.151-.013.214v.138c-.013.151-.013.3-.013.44v.226l.05.038a.456.456,0,0,1,.063.05c.038.025.088.063.088.063l.025.025a.1.1,0,0,0,.038.025l.126.088.025.025.075.05c.05.038.113.088.113.088l.1.075c.038.025.088.063.088.063l.013.013.075.05a.1.1,0,0,0,.038.025l.05.038.164.126.113.088.025.025c.05.038.088.075.138.113a.1.1,0,0,0,.038.025l.113.1a.967.967,0,0,0,.088.075l.05.038.038.038.05.038.088.088a.217.217,0,0,0,.05.038l.038.025.038.038c.025.025.05.038.075.063l.038.038c.063.05.113.1.176.151a1.325,1.325,0,0,0,.113.1l.063.063.088.088.075.075.088.088.189.189.013.013.063.063c.05.05.1.113.1.113l.075.088.025.025.05.05a.012.012,0,0,0,.013.013l.05-.05.05-.05.075-.075.025-.025.038-.038c.05-.05.1-.113.1-.113l.1-.1.075-.075c.05-.05.113-.1.113-.1.038-.038.1-.088.1-.088.05-.05.126-.113.126-.113l.075-.075.075-.075a.257.257,0,0,0,.063-.063.217.217,0,0,1,.05-.038l.025-.025a.866.866,0,0,1,.164-.138l.038-.038a.455.455,0,0,0,.063-.05l.025-.025.025-.013.113-.088a.1.1,0,0,1,.038-.025l.038-.025.1-.088a.1.1,0,0,1,.038-.025.984.984,0,0,1,.126-.1c.05-.038.113-.088.113-.088l.05-.038a1.672,1.672,0,0,1,.239-.176l.1-.075a.455.455,0,0,0,.063-.05,1.353,1.353,0,0,0,.138-.1l.025-.013.025-.025c.063-.038.113-.088.176-.126l.138-.1.025-.013.025-.025c.038-.025.088-.063.088-.063l.038-.025a.907.907,0,0,1,.088-.05h0c0-.151,0-.3-.013-.453Z" transform="translate(-69.94 -110.451)" fill="#0092d7"/>
      <path id="Path_403" data-name="Path 403" d="M82.858,137.607c.05-.05.126-.113.126-.113.138-.113.277-.239.4-.352l.025-.025c.063-.05.126-.113.189-.164l.038-.038c.038-.038.088-.075.126-.113l.025-.025.075-.063.113-.113.05-.05.038-.038.063-.063.075-.075.025-.025a2.008,2.008,0,0,1,.164-.164l.025-.025.025-.025.05-.05.025-.025.025-.025a.547.547,0,0,0,.075-.088l.025-.025.05-.05.025-.025.025-.025.025-.025c.038-.038.063-.075.1-.113l.025-.025c.063-.075.126-.151.2-.226l.025-.025c.164-.189.327-.377.478-.579l.025-.025.025-.025.025-.038.164-.2.025-.025c.05-.063.088-.113.138-.176l.025-.025c.025-.025.05-.063.075-.088l.025-.025a.221.221,0,0,1,.05-.063l.025-.025a.383.383,0,0,0,.063-.088l.025-.025c.025-.025.038-.063.063-.088l.025-.025.063-.088.088-.126c.025-.038.063-.088.088-.126l.025-.038c.025-.025.038-.063.063-.088l.038-.063c.05-.088.113-.164.164-.252l.025-.038c.025-.025.038-.063.063-.088s.025-.038.038-.063l.025-.038c.063-.1.126-.189.176-.289l.025-.038c.025-.038.038-.063.063-.1l.013-.025.075-.138c.038-.063.075-.126.113-.2l.013-.025.063-.1.025-.038.013-.038c.025-.05.063-.113.088-.164l.013-.038.013-.038c.013-.038.038-.063.05-.1l.013-.025c.013-.038.038-.063.05-.1l.038-.063c0-.013.013-.013.013-.025H86.343a.954.954,0,0,0-.189.013H85.7c-.05,0-.1.013-.151.013H85.4a.348.348,0,0,0-.113.013h-.226c-.1.013-.2.013-.3.025h-.113c-.038,0-.075.013-.113.013h-.113a.16.16,0,0,0-.075.013H84.3a.16.16,0,0,0-.075.013h-.038c-.025,0-.05.013-.075.013H84c-.038,0-.075.013-.113.013h-.113c-.025,0-.05.013-.075.013h-.038c-.025,0-.05.013-.075.013h-.113c-.038.013-.075.013-.113.025h-.038l-.038.013h-.038c-.025,0-.05.013-.075.013h-.038c-.05.013-.1.013-.151.025l-.038.013-.038.013-.038.013-.038.013-.038.013-.038.013-.038.013c-.025,0-.05.013-.075.013l-.038.013c-.025,0-.05.013-.075.013l-.038.013-.038.013-.038.013c-.1.025-.2.038-.289.063l-.038.013c-.126.025-.239.063-.365.088l-.038.013-.038.013-.038.013a.367.367,0,0,1-.113.025l-.038.013a.545.545,0,0,0-.063.013.814.814,0,0,0-.164.05l-.038.013a.13.13,0,0,1-.05.013c-.013,0-.013,0-.038.013l-.025.013c-.013,0-.013,0-.025.013s-.088.025-.164.05l-.05.013c-.013,0-.025.013-.038.013a1.065,1.065,0,0,0-.113.038c-.013,0-.038.013-.05.013-.063.013-.113.038-.176.05l-.038.013s-.063.025-.1.038l-.075.025c-.1.038-.2.063-.3.1-.013,0-.013,0-.025.013-.063.025-.151.063-.151.063l-.088.025h-.013c-.013,0-.013,0-.025.013l-.189.075-.038.013-.05.025-.038.013c-.013,0-.013.013-.063.025l-.05.025-.038.013c-.088.038-.176.075-.277.113,0,0-.176.075-.3.126a.747.747,0,0,1-.088.038c-.05.025-.113.05-.164.075l-.038.013s-.063.038-.113.063l-.05.025-.038.013c-.088.038-.176.088-.264.126l-.063.025a.908.908,0,0,1-.088.05c-.05.025-.05.025-.063.038l-.126.063-.05.025c-.088.05-.189.1-.277.151l-.05.025a.736.736,0,0,1-.013.126v.214l-.013.176v.038a.735.735,0,0,1-.013.126v.075a.736.736,0,0,1-.013.126v.038a.7.7,0,0,1-.013.113v.075a.553.553,0,0,0-.013.113v.063a.487.487,0,0,1-.013.113l-.013.05v.038a.274.274,0,0,1-.013.075v.038a.269.269,0,0,1-.013.075c-.013.038,0,.038-.013.088v.038l-.013.038v.025l-.013.088-.013.038-.013.038-.013.088-.013.038-.013.038c-.013.05-.025.113-.025.113l-.013.038-.013.038c-.013.075-.038.164-.038.164-.013.05-.025.113-.025.113,0,.025,0,.025-.013.038-.013.063-.038.151-.038.151-.013.075-.038.176-.038.176l-.013.038c-.013.063-.038.151-.038.151l-.025.1a.168.168,0,0,0-.013.063l-.05.176-.013.038c-.013.038-.013.075-.025.1a.22.22,0,0,0-.013.063.829.829,0,0,1-.038.126l-.025.075-.013.05a.925.925,0,0,1-.025.1l-.038.113h.013l.05.013s.113.025.189.05c.013,0,.025.013.05.013l.1.025.075.025.1.025.05.013a.539.539,0,0,1,.126.038.076.076,0,0,0,.05.013s.088.025.151.038l.038.013a.113.113,0,0,0,.063.013l.126.038.038.013.189.063.164.05.038.013a.814.814,0,0,0,.126.038l.038.013.038.013.126.038c.075.025.164.063.164.063l.038.013.025.013.025.013c.013,0,.013,0,.038.013l.088.038.075.025.05.025.05.025a.044.044,0,0,1,.025.013l.025.013.025.013c.013.013.013.013.038.013a.57.57,0,0,1,.1.038c.075.025.138.063.214.088,0,0,.1.038.176.075l.05.025.176.075.038.013a1.538,1.538,0,0,1,.151.075l.075.038a.212.212,0,0,1,.075.038l.038.013.038.013c.063.025.138.063.138.063a.212.212,0,0,1,.075.038c.013,0,.025.013.038.013a.974.974,0,0,1,.088-.05l.038-.025a.838.838,0,0,1,.138-.075.1.1,0,0,1,.038-.025c.1-.063.214-.126.314-.189l.025-.013a.652.652,0,0,1,.063-.038l.113-.075c.038-.025.1-.063.1-.063l.038-.025c.013-.013.025-.013.038-.025a.389.389,0,0,1,.075-.05l.075-.05c.1-.063.189-.138.289-.2l.038-.038.151-.113.038-.025c.013-.013.025-.013.038-.025l.151-.113a2.289,2.289,0,0,0,.2-.164c.05-.038.113-.088.113-.088s.05-.038.088-.063a.1.1,0,0,1,.038-.025c.05-.038.088-.075.138-.113l.025-.025Z" transform="translate(-68.279 -108.475)" fill="#0092d7"/>
    </g>
    <g id="Group_174" data-name="Group 174" transform="translate(136.934 101.217)">
      <path id="Path_404" data-name="Path 404" d="M108.42,172.028h-1.17l4.063-9.7h1.044l4,9.711h-1.182l-1.12-2.73-4.528-.013Zm3.384-8.478-1.937,4.868h3.874Z" transform="translate(-107.25 -162.33)" fill="#002851"/>
      <path id="Path_405" data-name="Path 405" d="M125.144,162.35a3.885,3.885,0,0,1,2.6.616,2.992,2.992,0,0,1,1.031,2.315,3.053,3.053,0,0,1-.994,2.3,3.676,3.676,0,0,1-2.554.654h-1.56v3.811H122.59l.013-9.7Zm-1.472,4.931h1.547a3.035,3.035,0,0,0,1.8-.4,2.085,2.085,0,0,0-.013-3.157,3.146,3.146,0,0,0-1.811-.415h-1.522Z" transform="translate(-103.294 -162.325)" fill="#002851"/>
      <path id="Path_406" data-name="Path 406" d="M138.194,162.37a3.885,3.885,0,0,1,2.6.616,2.993,2.993,0,0,1,1.031,2.315,3.053,3.053,0,0,1-.994,2.3,3.676,3.676,0,0,1-2.554.654h-1.56v3.811H135.64l.013-9.7Zm-1.472,4.931h1.547a3.035,3.035,0,0,0,1.8-.4,2.084,2.084,0,0,0-.013-3.157,3.146,3.146,0,0,0-1.811-.415h-1.522Z" transform="translate(-99.928 -162.32)" fill="#002851"/>
      <path id="Path_407" data-name="Path 407" d="M148.37,172.088H147.2l4.063-9.7h1.044l4,9.711h-1.182l-1.12-2.73-4.528-.013Zm3.384-8.478-1.937,4.868h3.874Z" transform="translate(-96.947 -162.314)" fill="#002851"/>
      <path id="Path_408" data-name="Path 408" d="M162.54,162.4h2.528a4.965,4.965,0,0,1,2.73.5,3.1,3.1,0,0,1,1.321,2.616,3.161,3.161,0,0,1-.579,1.9,2.686,2.686,0,0,1-2.164,1.057l2.4,3.635H167.6l-2.73-4.239h.314a3.341,3.341,0,0,0,2.151-.491,2.357,2.357,0,0,0,.742-1.786,2.278,2.278,0,0,0-.956-1.874,3.521,3.521,0,0,0-1.962-.352h-1.522l-.013,8.742H162.54Z" transform="translate(-92.991 -162.312)" fill="#002851"/>
      <path id="Path_409" data-name="Path 409" d="M176.03,162.42l5.371.013v.956h-4.3v3.371h4.277v.956H177.1v3.459h4.3v.956l-5.371-.013Z" transform="translate(-89.512 -162.307)" fill="#002851"/>
      <path id="Path_410" data-name="Path 410" d="M188.983,162.44h1.082l-.013,8.742h3.7v.956l-4.78-.013Z" transform="translate(-86.174 -162.302)" fill="#002851"/>
      <path id="Path_411" data-name="Path 411" d="M201.6,169.5a1.962,1.962,0,0,0,1.937,1.962,1.9,1.9,0,0,0,1.937-1.849c0-1.359-1.17-1.673-2.289-2.038-.792-.239-2.478-.742-2.478-2.579a2.675,2.675,0,0,1,2.893-2.667,2.613,2.613,0,0,1,2.755,2.5h-1.069a1.747,1.747,0,0,0-3.484.075c-.013,1.182.943,1.472,2.415,1.975.918.352,2.365.868,2.352,2.654a2.828,2.828,0,0,1-3.006,2.843,2.859,2.859,0,0,1-3.032-2.881Z" transform="translate(-83.193 -162.33)" fill="#002851"/>
    </g>
  </g>
</svg>
