<svg id="Group_44015" data-name="Group 44015" xmlns="http://www.w3.org/2000/svg" width="26.666" height="26.666" viewBox="0 0 26.666 26.666">
  <path id="Path_126744" data-name="Path 126744" d="M6,0H20.666a6,6,0,0,1,6,6V20.666a6,6,0,0,1-6,6H6a6,6,0,0,1-6-6V6A6,6,0,0,1,6,0Z" fill="#f1eada"/>
  <path id="Icon_awesome-youtube" data-name="Icon awesome-youtube" d="M19.292,6.55a2.341,2.341,0,0,0-1.647-1.658A55.323,55.323,0,0,0,10.366,4.5a55.324,55.324,0,0,0-7.279.392A2.341,2.341,0,0,0,1.439,6.55a24.558,24.558,0,0,0-.389,4.514,24.558,24.558,0,0,0,.389,4.514,2.306,2.306,0,0,0,1.647,1.631,55.324,55.324,0,0,0,7.279.392,55.324,55.324,0,0,0,7.279-.392,2.306,2.306,0,0,0,1.647-1.631,24.558,24.558,0,0,0,.389-4.514,24.558,24.558,0,0,0-.389-4.514ZM8.46,13.833V8.293l4.869,2.77L8.46,13.833Z" transform="translate(2.904 2.283)" fill="#5f5751"/>
</svg>
