<svg xmlns="http://www.w3.org/2000/svg" width="35.219" height="30.08" viewBox="0 0 35.219 30.08">
  <path id="Path_1" data-name="Path 1" d="M35.764,81.5a10.5,10.5,0,0,0-8.154,4.083,10.489,10.489,0,0,0-8.144-4.075A9.442,9.442,0,0,0,10,91.34c0,6.569,5.826,11.155,10.081,14.5,1.61,1.272,2.792,2.171,3.756,2.9a29.488,29.488,0,0,1,3.105,2.555.954.954,0,0,0,1.344,0A43.973,43.973,0,0,1,33,107.469l2.128-1.614c3.522-2.685,10.088-7.673,10.088-14.58A9.409,9.409,0,0,0,35.764,81.5Zm-16.3,1.908a8.946,8.946,0,0,1,7.353,4.3,1.012,1.012,0,0,0,1.581,0A8.964,8.964,0,0,1,35.767,83.4a7.549,7.549,0,0,1,7.554,7.87c0,5.5-4.823,9.631-9.344,13.067l-2.128,1.61c-2.21,1.675-3.285,2.491-4.244,3.364-.7-.625-1.481-1.218-2.62-2.084-.92-.7-2.106-1.6-3.738-2.893-3.946-3.1-9.347-7.353-9.347-13A7.583,7.583,0,0,1,19.466,83.408Z" transform="translate(-10 -81.5)"/>
</svg>
